<svg data-v-d3f97b9e="" xmlns="http://www.w3.org/2000/svg" viewBox="0 0 325 90"><!----><!----><!----><g data-v-d3f97b9e="" id="bf8fb3d1-5a14-4eb1-a277-a51b12e7ce7b" fill="#FFFFFF" transform="matrix(4.504504203796387,0,0,4.504504203796387,145.79281616210938,4.5495500564575195)"><path d="M5.77 4.38L7.63 4.38L7.63 4.38Q7.80 4.96 8.00 5.68L8.00 5.68L8.00 5.68Q8.20 6.40 8.44 7.17L8.44 7.17L8.44 7.17Q8.67 7.94 8.90 8.71L8.90 8.71L8.90 8.71Q9.14 9.48 9.37 10.14L9.37 10.14L9.37 10.14Q9.55 9.42 9.74 8.58L9.74 8.58L9.74 8.58Q9.93 7.74 10.09 6.85L10.09 6.85L10.09 6.85Q10.26 5.95 10.42 5.06L10.42 5.06L10.42 5.06Q10.58 4.17 10.72 3.35L10.72 3.35L12.99 3.35L12.99 3.35Q12.50 5.78 11.87 8.29L11.87 8.29L11.87 8.29Q11.23 10.79 10.49 13.05L10.49 13.05L8.48 13.05L8.48 13.05Q7.99 11.70 7.53 10.23L7.53 10.23L7.53 10.23Q7.07 8.75 6.62 7.27L6.62 7.27L6.62 7.27Q6.17 8.75 5.73 10.23L5.73 10.23L5.73 10.23Q5.28 11.70 4.79 13.05L4.79 13.05L2.79 13.05L2.79 13.05Q2.04 10.79 1.41 8.29L1.41 8.29L1.41 8.29Q0.77 5.78 0.28 3.35L0.28 3.35L2.65 3.35L2.65 3.35Q2.79 4.17 2.95 5.06L2.95 5.06L2.95 5.06Q3.12 5.95 3.30 6.85L3.30 6.85L3.30 6.85Q3.49 7.74 3.68 8.58L3.68 8.58L3.68 8.58Q3.86 9.42 4.06 10.14L4.06 10.14L4.06 10.14Q4.31 9.45 4.55 8.68L4.55 8.68L4.55 8.68Q4.79 7.91 5.01 7.14L5.01 7.14L5.01 7.14Q5.24 6.37 5.42 5.66L5.42 5.66L5.42 5.66Q5.61 4.94 5.77 4.38L5.77 4.38ZM17.07 11.59L17.07 11.59L17.07 11.59Q17.37 11.59 17.65 11.58L17.65 11.58L17.65 11.58Q17.93 11.56 18.10 11.54L18.10 11.54L18.10 9.95L18.10 9.95Q17.98 9.93 17.72 9.90L17.72 9.90L17.72 9.90Q17.47 9.87 17.26 9.87L17.26 9.87L17.26 9.87Q16.97 9.87 16.71 9.90L16.71 9.90L16.71 9.90Q16.45 9.94 16.25 10.04L16.25 10.04L16.25 10.04Q16.06 10.14 15.95 10.30L15.95 10.30L15.95 10.30Q15.83 10.47 15.83 10.72L15.83 10.72L15.83 10.72Q15.83 11.21 16.16 11.40L16.16 11.40L16.16 11.40Q16.49 11.59 17.07 11.59ZM16.90 5.49L16.90 5.49L16.90 5.49Q17.82 5.49 18.44 5.70L18.44 5.70L18.44 5.70Q19.05 5.91 19.43 6.30L19.43 6.30L19.43 6.30Q19.80 6.69 19.95 7.25L19.95 7.25L19.95 7.25Q20.10 7.81 20.10 8.50L20.10 8.50L20.10 12.84L20.10 12.84Q19.66 12.94 18.86 13.07L18.86 13.07L18.86 13.07Q18.06 13.20 16.93 13.20L16.93 13.20L16.93 13.20Q16.21 13.20 15.63 13.08L15.63 13.08L15.63 13.08Q15.05 12.95 14.63 12.66L14.63 12.66L14.63 12.66Q14.21 12.38 13.99 11.91L13.99 11.91L13.99 11.91Q13.76 11.45 13.76 10.78L13.76 10.78L13.76 10.78Q13.76 10.14 14.02 9.69L14.02 9.69L14.02 9.69Q14.28 9.24 14.71 8.97L14.71 8.97L14.71 8.97Q15.15 8.71 15.71 8.59L15.71 8.59L15.71 8.59Q16.27 8.47 16.87 8.47L16.87 8.47L16.87 8.47Q17.28 8.47 17.59 8.50L17.59 8.50L17.59 8.50Q17.91 8.54 18.10 8.60L18.10 8.60L18.10 8.40L18.10 8.40Q18.10 7.87 17.78 7.55L17.78 7.55L17.78 7.55Q17.46 7.22 16.66 7.22L16.66 7.22L16.66 7.22Q16.13 7.22 15.61 7.30L15.61 7.30L15.61 7.30Q15.09 7.38 14.71 7.52L14.71 7.52L14.45 5.84L14.45 5.84Q14.63 5.78 14.90 5.72L14.90 5.72L14.90 5.72Q15.18 5.66 15.50 5.61L15.50 5.61L15.50 5.61Q15.82 5.56 16.18 5.52L16.18 5.52L16.18 5.52Q16.53 5.49 16.90 5.49ZM26.38 5.68L28.53 5.68L28.53 5.68Q27.90 7.81 27.22 9.67L27.22 9.67L27.22 9.67Q26.53 11.54 25.72 13.29L25.72 13.29L25.72 13.29Q25.42 13.92 25.13 14.36L25.13 14.36L25.13 14.36Q24.84 14.80 24.49 15.09L24.49 15.09L24.49 15.09Q24.14 15.37 23.70 15.50L23.70 15.50L23.70 15.50Q23.25 15.64 22.67 15.64L22.67 15.64L22.67 15.64Q22.18 15.64 21.76 15.55L21.76 15.55L21.76 15.55Q21.35 15.46 21.08 15.34L21.08 15.34L21.45 13.68L21.45 13.68Q21.77 13.79 22.02 13.83L22.02 13.83L22.02 13.83Q22.27 13.87 22.55 13.87L22.55 13.87L22.55 13.87Q23.11 13.87 23.41 13.57L23.41 13.57L23.41 13.57Q23.72 13.27 23.93 12.74L23.93 12.74L23.93 12.74Q23.21 11.34 22.50 9.60L22.50 9.60L22.50 9.60Q21.78 7.85 21.15 5.68L21.15 5.68L23.37 5.68L23.37 5.68Q23.51 6.23 23.70 6.87L23.70 6.87L23.70 6.87Q23.88 7.50 24.09 8.16L24.09 8.16L24.09 8.16Q24.30 8.81 24.52 9.42L24.52 9.42L24.52 9.42Q24.74 10.04 24.93 10.54L24.93 10.54L24.93 10.54Q25.12 10.04 25.31 9.42L25.31 9.42L25.31 9.42Q25.51 8.81 25.70 8.16L25.70 8.16L25.70 8.16Q25.89 7.50 26.06 6.87L26.06 6.87L26.06 6.87Q26.24 6.23 26.38 5.68L26.38 5.68ZM33.39 13.05L31.65 13.05L31.65 13.05Q30.94 11.65 30.21 9.77L30.21 9.77L30.21 9.77Q29.47 7.90 28.81 5.68L28.81 5.68L31.02 5.68L31.02 5.68Q31.16 6.23 31.35 6.87L31.35 6.87L31.35 6.87Q31.54 7.50 31.75 8.16L31.75 8.16L31.75 8.16Q31.95 8.81 32.15 9.42L32.15 9.42L32.15 9.42Q32.35 10.04 32.55 10.54L32.55 10.54L32.55 10.54Q32.73 10.04 32.94 9.42L32.94 9.42L32.94 9.42Q33.15 8.81 33.36 8.16L33.36 8.16L33.36 8.16Q33.56 7.50 33.75 6.87L33.75 6.87L33.75 6.87Q33.94 6.23 34.08 5.68L34.08 5.68L36.23 5.68L36.23 5.68Q35.57 7.90 34.84 9.77L34.84 9.77L34.84 9.77Q34.10 11.65 33.39 13.05L33.39 13.05ZM39.44 5.68L39.44 13.05L37.35 13.05L37.35 5.68L39.44 5.68ZM39.63 3.56L39.63 3.56L39.63 3.56Q39.63 4.13 39.26 4.46L39.26 4.46L39.26 4.46Q38.89 4.79 38.39 4.79L38.39 4.79L38.39 4.79Q37.88 4.79 37.51 4.46L37.51 4.46L37.51 4.46Q37.14 4.13 37.14 3.56L37.14 3.56L37.14 3.56Q37.14 2.98 37.51 2.65L37.51 2.65L37.51 2.65Q37.88 2.32 38.39 2.32L38.39 2.32L38.39 2.32Q38.89 2.32 39.26 2.65L39.26 2.65L39.26 2.65Q39.63 2.98 39.63 3.56Z"></path></g><!----><g data-v-d3f97b9e="" id="217b7f02-ea37-4e6b-af68-62df283a869d" transform="matrix(5.293920040130615,0,0,5.293920040130615,0.4729595184326172,-18.025997161865234)" stroke="none" fill="#45C6B1"><path d="M13 20.5c-.439 0-.83-.288-.958-.713l-2.275-7.584-1.872 3.745a1 1 0 0 1-.832.551.977.977 0 0 1-.895-.443L4.465 13.5H1a1 1 0 1 1 0-2h4c.334 0 .646.167.832.445l1.044 1.566 2.229-4.459a.973.973 0 0 1 .98-.549 1 1 0 0 1 .872.709l1.848 6.16L15.02 4.304a.983.983 0 0 1 1.023-.803 1 1 0 0 1 .951.889l.842 7.575.717-.359A.99.99 0 0 1 19 11.5h4a1 1 0 1 1 0 2h-3.764l-1.789.895a.998.998 0 0 1-1.442-.784l-.288-2.598-1.737 8.684a1 1 0 0 1-.934.803H13z"></path></g><!----></svg>